<svg width="60" height="60" viewBox="0 0 60 60" fill="none" xmlns="http://www.w3.org/2000/svg">
<rect width="60" height="60" fill="black" fill-opacity="0.25"/>
<path d="M26.955 31.04C26.955 32.7195 28.32 34.085 30 34.085C31.6795 34.085 33.045 32.72 33.045 31.04C33.045 29.36 31.68 27.995 30 27.995C28.32 27.995 26.955 29.3605 26.955 31.04ZM21.5 38H38.5C39.815 38 40 37.815 40 36.5V25C40 23.769 39.81 23.5 38.5 23.5H33.5C33.5 22.215 33.29 22 32 22H28C26.725 22 26.5 22.24 26.5 23.5H21.5C20.21 23.5 20 23.846 20 25V36.5C20 37.8 20.19 38 21.5 38ZM25.32 31.04C25.32 28.455 27.415 26.3605 30 26.3605C32.585 26.3605 34.6795 28.455 34.6795 31.04C34.6795 33.625 32.585 35.7195 30 35.7195C27.415 35.7195 25.32 33.625 25.32 31.04Z" fill="black"/>
</svg>
